<svg width="60" height="44" viewBox="0 0 60 44" fill="none" xmlns="http://www.w3.org/2000/svg">
<g clip-path="url(#clip0_595_25)">
<path fill-rule="evenodd" clip-rule="evenodd" d="M9.72333 0H50.1335C50.9021 0 51.6059 0.318071 52.1159 0.828057L52.1198 0.831466L52.1232 0.83585L52.1276 0.83926C52.6371 1.35265 52.9513 2.05309 52.9513 2.82124V8.56113H55.5343C56.7243 8.56113 57.8042 9.05017 58.5845 9.83049C59.3678 10.6137 59.8539 11.6975 59.8539 12.8821V31.1184C59.8539 32.3039 59.3648 33.3843 58.5826 34.1676C58.5231 34.2265 58.4613 34.2825 58.3975 34.3341C57.6332 35.018 56.6259 35.4389 55.5343 35.4389H52.9513V41.1822C52.9513 41.9576 52.6332 42.6615 52.1232 43.1724C51.6142 43.6814 50.9094 44 50.1335 44H9.72333C8.9547 44 8.25085 43.6844 7.73697 43.1724L7.73356 43.1676L7.72918 43.1637L7.72577 43.1607C7.21578 42.6469 6.90112 41.9469 6.90112 41.1783V35.4389H4.32099C3.13639 35.4389 2.05261 34.9528 1.26936 34.169C0.48904 33.3887 0 32.3098 0 31.1189V12.8821C0 11.6907 0.486118 10.6103 1.26741 9.82854C1.32684 9.76912 1.3887 9.7131 1.45348 9.66098C2.21773 8.97808 3.22309 8.56113 4.32099 8.56113H6.90112V2.81393C6.90891 2.03848 7.22358 1.33317 7.73356 0.824647C7.76327 0.79396 7.79299 0.764247 7.82708 0.737944C8.32927 0.281052 8.99562 0 9.72333 0ZM25.6839 3.61958C26.6853 3.61958 27.4978 4.43254 27.4978 5.43351C27.4978 6.43546 26.6853 7.2489 25.6839 7.2489C24.6819 7.2489 23.8695 6.43595 23.8695 5.43351C23.8695 4.43254 24.6814 3.61958 25.6839 3.61958ZM19.2684 3.61958C20.2694 3.61958 21.0823 4.43254 21.0823 5.43351C21.0823 6.43546 20.2694 7.2489 19.2684 7.2489C18.2664 7.2489 17.453 6.43595 17.453 5.43351C17.453 4.43254 18.266 3.61958 19.2684 3.61958ZM12.8529 3.61958C13.8539 3.61958 14.6668 4.43254 14.6668 5.43351C14.6668 6.43546 13.8539 7.2489 12.8529 7.2489C11.8509 7.2489 11.0375 6.43595 11.0375 5.43351C11.0375 4.43254 11.8509 3.61958 12.8529 3.61958ZM4.32197 10.9001H55.5416C56.6327 10.9001 57.5231 11.8227 57.5231 12.8821V31.1184C57.5231 32.1773 56.6006 33.0999 55.5416 33.0999H4.32197C3.26254 33.0999 2.33999 32.2094 2.33999 31.1184V12.8821C2.33999 11.7915 3.23088 10.9001 4.32197 10.9001ZM50.4067 35.4389H9.45348V35.4886V41.1749V41.1758V41.189L9.45494 41.2021L9.45592 41.2153L9.45689 41.2163L9.45835 41.2294L9.46079 41.2426H9.46176L9.4642 41.2538H9.46517L9.46858 41.2669H9.46907L9.47297 41.2791L9.47784 41.2903L9.48368 41.3025H9.48466C9.49683 41.3254 9.50998 41.3463 9.52655 41.3643L9.53093 41.3682C9.57866 41.417 9.64247 41.4433 9.72236 41.4433H50.1325L50.1525 41.4423C50.3015 41.4423 50.4218 41.3225 50.4218 41.1739V35.4881C50.4218 35.4739 50.4155 35.4613 50.4062 35.452L50.4067 35.4389Z" fill="#262626"/>
<path d="M11.568 24.0541L15.1374 23.8305C15.2139 24.4082 15.3727 24.8505 15.6109 25.151C15.9991 25.641 16.5514 25.8875 17.2709 25.8875C17.8062 25.8875 18.2197 25.7628 18.5091 25.511C18.8008 25.2586 18.9455 24.9669 18.9455 24.6357C18.9455 24.321 18.8096 24.037 18.5349 23.7881C18.2601 23.5392 17.6201 23.3069 16.6143 23.0833C14.9655 22.715 13.7925 22.2216 13.0902 21.6069C12.3814 20.9951 12.0278 20.2133 12.0278 19.2616C12.0278 18.6381 12.209 18.0487 12.5719 17.4939C12.9343 16.9357 13.4784 16.4993 14.2066 16.1822C14.9348 15.8651 15.9318 15.7063 17.1983 15.7063C18.7536 15.7063 19.9377 15.9951 20.7536 16.5762C21.5695 17.1544 22.0536 18.075 22.2095 19.338L18.6737 19.5475C18.5802 18.9951 18.3819 18.5933 18.0819 18.3434C17.7789 18.0911 17.3624 17.9669 16.8325 17.9669C16.396 17.9669 16.0648 18.0604 15.8437 18.2445C15.6225 18.4286 15.5125 18.6551 15.5125 18.9216C15.5125 19.1145 15.6031 19.2869 15.7813 19.4428C15.9543 19.6045 16.3736 19.7516 17.0366 19.8904C18.68 20.2445 19.8554 20.604 20.5636 20.9669C21.2743 21.3298 21.793 21.7774 22.116 22.3156C22.4389 22.8514 22.6006 23.452 22.6006 24.1179C22.6006 24.8972 22.3853 25.6162 21.9547 26.2767C21.5212 26.9342 20.9206 27.4355 20.1447 27.775C19.3712 28.1145 18.397 28.2849 17.2183 28.2849C15.1501 28.2849 13.717 27.8855 12.9206 27.0891C12.1233 26.2927 11.6727 25.2801 11.568 24.0541ZM35.3001 26.2952C35.7672 26.6206 36.0736 26.8271 36.2178 26.9099C36.4306 27.0317 36.7224 27.1734 37.0848 27.3341L36.0449 29.4394C35.5207 29.1846 34.9996 28.8836 34.4866 28.5329C33.9713 28.1817 33.6113 27.9182 33.4073 27.7423C32.5772 28.1018 31.5378 28.2835 30.2855 28.2835C28.4355 28.2835 26.9767 27.8022 25.9085 26.8383C24.645 25.6995 24.0132 24.0994 24.0132 22.0365C24.0132 20.0336 24.5656 18.4783 25.6703 17.3682C26.775 16.2606 28.3162 15.7053 30.2991 15.7053C32.3186 15.7053 33.8773 16.2465 34.9767 17.3312C36.076 18.4135 36.6255 19.9659 36.6255 21.9829C36.6255 23.7789 36.1837 25.2158 35.3001 26.2952ZM32.4189 24.3658C32.719 23.83 32.8695 23.0282 32.8695 21.9605C32.8695 20.7336 32.6396 19.8587 32.1837 19.3317C31.7253 18.8076 31.096 18.5441 30.2913 18.5441C29.5407 18.5441 28.9343 18.813 28.4696 19.3488C28.0025 19.8841 27.7696 20.7228 27.7696 21.8617C27.7696 23.1905 27.9961 24.1227 28.4496 24.6576C28.906 25.1934 29.529 25.4622 30.3196 25.4622C30.5743 25.4622 30.8154 25.4364 31.0419 25.3892C30.7243 25.0828 30.2256 24.7964 29.5432 24.5246L30.1325 23.1739C30.4667 23.2338 30.7273 23.3098 30.9114 23.3975C31.0984 23.4861 31.4613 23.718 32.002 24.095C32.1296 24.1817 32.2684 24.2718 32.4189 24.3658ZM38.6484 15.9094H42.4048V25.0882H48.286V28.0804H38.6484V15.9094Z" fill="#DA1A32"/>
</g>
<defs>
<clipPath id="clip0_595_25">
<rect width="59.8539" height="44" fill="white"/>
</clipPath>
</defs>
</svg>
