<svg width="44" height="44" viewBox="0 0 44 44" fill="none" xmlns="http://www.w3.org/2000/svg">
<path d="M18.7803 26.9154L19.11 26.5886L19.1004 26.5808C18.6744 26.15 21.5102 23.2663 21.5102 23.2663L17.5845 19.3411L4.1887 32.3492C3.23472 33.3051 2.77683 34.6241 2.90352 36.0655C3.02053 37.416 3.64475 38.72 4.74716 39.8229C5.92211 40.9949 7.43213 41.5926 8.87301 41.5926C10.092 41.5926 11.2606 41.1627 12.1348 40.2914L21.9299 30.4954L19.4586 27.9956C19.1492 27.6823 18.9302 27.3129 18.7803 26.9154Z" fill="#DA1A32"/>
<path d="M42.3924 8.10712L41.6086 6.22576L36.5617 11.2742C35.7025 12.1334 34.9487 12.569 34.3206 12.569C33.8409 12.569 33.3506 12.3094 32.7994 11.7596L32.7085 11.6706C31.8861 10.8482 31.2503 9.88405 33.2099 7.92339L38.2608 2.87306L36.3784 2.08928C32.5456 0.492706 28.53 -0.51881 25.1197 2.89385L21.9977 6.01301C18.8292 9.18537 17.7374 12.7871 18.7586 16.3588L21.9063 19.5723L24.3664 17.1121C24.3664 17.1121 25.9369 17.9283 27.0586 18.6507L33.7674 25.4494C35.4104 24.9499 36.9896 23.9703 38.473 22.4859L41.5874 19.3663C45.0024 15.9565 43.9928 11.939 42.3924 8.10712Z" fill="#DA1A32"/>
<path d="M38.7282 33.6924L26.3381 21.1365C25.932 20.723 25.4204 20.3981 24.816 20.1714L24.0859 19.8967L21.8724 22.1112L10.165 10.4043L11.2456 9.32269C11.5367 9.03258 11.6808 8.62691 11.6387 8.21882C11.5971 7.80977 11.3742 7.44181 11.0305 7.21601L4.69978 3.05632C4.15873 2.70142 3.44167 2.77491 2.98281 3.23328L0.815692 5.40427C0.358769 5.86216 0.285758 6.57825 0.641142 7.11834L4.79938 13.4495C5.02422 13.7933 5.39266 14.0172 5.80123 14.0587C5.84765 14.0636 5.89358 14.0655 5.94 14.0655C6.3007 14.0655 6.64835 13.9229 6.90607 13.6661L7.88277 12.6889L19.5892 24.3954L17.3708 26.6147L17.6474 27.3458C17.8693 27.9294 18.1884 28.4337 18.5975 28.8471L30.9973 41.4108C31.8135 42.227 32.9342 42.6761 34.1532 42.6761H34.1542C35.6018 42.6761 37.064 42.0432 38.1838 40.9224L38.2481 40.8552C39.2427 39.8635 39.8524 38.5933 39.966 37.2791C40.0869 35.8861 39.645 34.6111 38.7282 33.6924ZM36.5161 39.16L36.4499 39.2301C35.8 39.88 34.9626 40.2537 34.1532 40.2537C33.748 40.2537 33.1673 40.1565 32.7128 39.703L20.3203 27.1451C20.3106 27.1354 20.3014 27.1263 20.2917 27.1166L24.5917 22.8157C24.5975 22.8225 24.6028 22.8288 24.6086 22.8346L37.0084 35.3987C37.4164 35.8088 37.6108 36.4025 37.5523 37.0693C37.487 37.8163 37.1263 38.5508 36.5161 39.16Z" fill="black"/>
</svg>
