<svg width="47" height="44" viewBox="0 0 47 44" fill="none" xmlns="http://www.w3.org/2000/svg">
<path d="M26.011 0.0244179C25.9373 0.0538902 20.3962 1.10023 13.7055 2.36762C7.01487 3.62028 1.19371 4.72556 0.766331 4.81398L0 4.96136V22.0417V39.1073L0.397902 39.1957C2.10741 39.5494 25.9668 44 26.1142 44C26.2616 44 26.291 43.101 26.2616 39.2841L26.2174 34.5682H35.4133H44.5945L45.243 34.2293C46.4956 33.5956 46.422 34.3324 46.422 22.0417C46.422 12.0204 46.4072 11.1657 46.1567 10.7088C46.024 10.4288 45.7146 10.0604 45.4935 9.89829C45.0809 9.58881 44.8893 9.58881 35.6933 9.51513L26.3058 9.44144L26.2763 4.7403C26.2616 2.1613 26.2321 0.0244179 26.2026 0.0096817C26.1731 -0.00505829 26.0995 -0.00505829 26.011 0.0244179ZM45.0956 11.4162C45.0956 11.8141 44.5061 12.3299 38.4492 17.1784C34.7944 20.1111 31.729 22.4691 31.6406 22.4248C31.5375 22.3806 30.2995 21.408 28.8848 20.2438L26.3058 18.1216L26.2616 14.5552L26.2321 10.9888H35.6638H45.0956V11.4162ZM45.0956 23.2943V33.0945L35.7081 33.0651L26.3058 33.0208L26.2616 26.4186C26.2468 22.7933 26.2763 19.8311 26.35 19.8311C26.4089 19.8311 27.6174 20.7596 29.0174 21.8943C30.4174 23.0291 31.6553 23.9575 31.7585 23.9575C31.8617 23.9575 34.868 21.6143 38.4197 18.7406C41.9713 15.8668 44.9188 13.5089 44.9925 13.5089C45.0514 13.4942 45.0956 17.9006 45.0956 23.2943ZM15.1056 14.4963C16.1666 15.0121 17.3456 16.2205 17.9056 17.4142C19.0846 19.9048 18.9814 23.8691 17.6698 26.3302C17.0361 27.4944 15.7393 28.7029 14.634 29.1155C13.4108 29.5724 11.4802 29.4839 10.3013 28.9239C9.3286 28.4523 8.14963 27.2734 7.61909 26.227C6.3517 23.7365 6.33696 20.0374 7.57488 17.5469C8.78333 15.1152 10.3749 14.0984 12.9687 14.0836C14.0445 14.0836 14.3392 14.1426 15.1056 14.4963Z" fill="black"/>
<path d="M13.7055 2.36762C20.3962 1.10023 25.9373 0.0538902 26.011 0.0244179C26.0995 -0.00505447 26.1731 -0.00505447 26.2026 0.0096817C26.2321 0.0244179 26.2616 2.1613 26.2763 4.7403L26.3058 9.44144L26.2321 10.9888L26.2616 14.5552L26.3058 18.1216L26.35 19.8311C26.2763 19.8311 26.2468 22.7933 26.2616 26.4186L26.3058 33.0208L26.2174 34.5682L26.2616 39.2841C26.291 43.101 26.2616 44 26.1142 44C25.9668 44 2.10741 39.5494 0.397902 39.1957L0 39.1073V22.0417V4.96136L0.766331 4.81398C1.19371 4.72556 7.01487 3.62028 13.7055 2.36762Z" fill="#DA1A32"/>
<path d="M10.791 15.8695L10.813 15.8596L10.8354 15.8504C11.3083 15.6556 12.0016 15.5509 12.4666 15.5323L12.4905 15.5313L12.5145 15.5311C14.0128 15.5191 15.2116 16.2781 15.9638 17.4845C16.6735 18.6225 16.9739 20.1177 16.9739 21.7469C16.9739 23.3683 16.6674 24.8562 15.961 25.9915C15.2173 27.1867 14.0318 27.9628 12.5413 27.9628C11.4278 27.9628 10.4121 27.5826 9.61311 26.7926C8.84981 26.0378 8.38644 25.0112 8.11941 23.8756C7.9506 23.166 7.93215 22.1477 7.97401 21.2838C8.01578 20.4218 8.13216 19.4114 8.36928 18.7324L8.37349 18.7203L8.3779 18.7083C8.59828 18.1102 8.94698 17.5365 9.32843 17.0687C9.69015 16.6251 10.1939 16.1382 10.791 15.8695Z" fill="black" stroke="white" stroke-width="3"/>
</svg>
