<?xml version="1.0" encoding="UTF-8"?>
<!DOCTYPE svg PUBLIC "-//W3C//DTD SVG 1.1//EN" "http://www.w3.org/Graphics/SVG/1.1/DTD/svg11.dtd">
<!-- Creator: CorelDRAW 2018 (64-Bit) -->
<svg xmlns="http://www.w3.org/2000/svg" xml:space="preserve" width="256px" height="35px" version="1.1" style="shape-rendering:geometricPrecision; text-rendering:geometricPrecision; image-rendering:optimizeQuality; fill-rule:evenodd; clip-rule:evenodd"
viewBox="0 0 693.32 94.85"
 xmlns:xlink="http://www.w3.org/1999/xlink">
 <defs>
  <style type="text/css">
   <![CDATA[
    .str0 {stroke:black;stroke-width:5.42;stroke-miterlimit:22.9256}
    .fil2 {fill:#E11F2A}
    .fil0 {fill:black;fill-rule:nonzero}
    .fil1 {fill:#E11F2A;fill-rule:nonzero}
   ]]>
  </style>
 </defs>
 <g id="Layer_x0020_1">
  <metadata id="CorelCorpID_0Corel-Layer"/>
  <g id="_2457473768640">
   <path class="fil0" d="M122.6 51.52c1.75,3.01 2.63,6.26 2.63,9.72 0,3.55 -0.86,6.81 -2.57,9.78 -1.79,2.97 -4.17,5.34 -7.14,7.12 -2.98,1.77 -6.17,2.66 -9.59,2.66 -3.58,0 -6.8,-0.91 -9.65,-2.72 -2.93,-1.74 -5.27,-4.11 -7.02,-7.12 -1.75,-3.01 -2.62,-6.25 -2.62,-9.72 0,-3.63 0.89,-6.89 2.68,-9.78 1.71,-2.97 4.05,-5.34 7.03,-7.12 2.96,-1.77 6.16,-2.66 9.58,-2.66 3.5,0 6.72,0.87 9.65,2.6 2.93,1.82 5.27,4.23 7.02,7.24zm2.63 36.96l0 5.94 13.67 0 0.12 -34.17c0,-5.86 -1.5,-11.31 -4.51,-16.34 -3.02,-4.95 -7.07,-8.89 -12.16,-11.82 -5.08,-2.93 -10.56,-4.4 -16.42,-4.4 -5.94,0 -11.44,1.49 -16.48,4.46 -5.13,3.05 -9.18,7.16 -12.16,12.32 -2.97,5.15 -4.45,10.75 -4.45,16.77 0,6.11 1.5,11.68 4.52,16.71 2.92,5.2 6.94,9.31 12.03,12.32 5.08,3.01 10.6,4.52 16.54,4.52 7,0 13.43,-2.1 19.3,-6.31z"/>
   <polygon class="fil0" points="148.05,11.65 148.05,94.79 164.04,94.79 164.04,38.95 174.91,38.95 178.7,24.59 164.04,24.59 164.04,0 "/>
   <path class="fil0" d="M223.46 51.52c1.75,3.01 2.63,6.26 2.63,9.72 0,3.55 -0.86,6.81 -2.57,9.78 -1.79,2.97 -4.17,5.34 -7.14,7.12 -2.97,1.77 -6.17,2.66 -9.59,2.66 -3.58,0 -6.8,-0.91 -9.65,-2.72 -2.93,-1.74 -5.27,-4.11 -7.02,-7.12 -1.75,-3.01 -2.62,-6.25 -2.62,-9.72 0,-3.63 0.89,-6.89 2.68,-9.78 1.71,-2.97 4.05,-5.34 7.02,-7.12 2.98,-1.77 6.17,-2.66 9.59,-2.66 3.5,0 6.71,0.87 9.65,2.6 2.93,1.82 5.27,4.23 7.02,7.24zm2.63 36.96l0 5.94 13.67 0 0.12 -34.17c0,-5.86 -1.5,-11.31 -4.51,-16.34 -3.02,-4.95 -7.06,-8.89 -12.15,-11.82 -5.09,-2.93 -10.57,-4.4 -16.43,-4.4 -5.94,0 -11.44,1.49 -16.49,4.46 -5.12,3.05 -9.18,7.16 -12.15,12.32 -2.97,5.15 -4.45,10.75 -4.45,16.77 0,6.11 1.5,11.68 4.52,16.71 2.92,5.2 6.93,9.31 12.02,12.32 5.09,3.01 10.61,4.52 16.55,4.52 7,0 13.43,-2.1 19.3,-6.31z"/>
   <path class="fil1" d="M283.83 42.18l0 -15.23 -3.18 -0.25c-5.86,0 -11.32,1.45 -16.36,4.33 -5.22,2.98 -9.3,6.96 -12.28,11.95 -2.97,4.99 -4.45,10.42 -4.45,16.28l0.12 35.53 14.29 0 -0.25 -33.3c0,-3.63 0.9,-6.89 2.69,-9.78 1.71,-2.97 4.05,-5.34 7.02,-7.12 2.97,-1.78 6.16,-2.66 9.59,-2.66 0.4,0 1.34,0.08 2.81,0.25z"/>
   <path class="fil1" d="M359.25 44.47c-2.97,5.15 -4.46,10.75 -4.46,16.77 0,6.11 1.51,11.68 4.52,16.71 2.93,5.2 6.94,9.31 12.03,12.32 5.09,3.01 10.6,4.52 16.55,4.52 5.29,0 10.17,-1.16 14.65,-3.47 4.56,-2.31 8.39,-5.49 11.48,-9.53 3.09,-4.05 5.17,-8.58 6.23,-13.62l-14.29 0c-1.39,3.71 -3.73,6.75 -7.03,9.1 -3.29,2.35 -6.97,3.53 -11.04,3.53 -3.59,0 -6.8,-0.91 -9.65,-2.72 -2.93,-1.74 -5.27,-4.11 -7.02,-7.12 -1.75,-3.02 -2.63,-6.25 -2.63,-9.72 0,-3.63 0.9,-6.89 2.69,-9.78 1.71,-2.97 4.05,-5.34 7.02,-7.12 2.97,-1.77 6.17,-2.66 9.59,-2.66 4.07,0 7.73,1.15 10.99,3.47 3.25,2.31 5.57,5.32 6.96,9.03l14.41 0.13c-1.06,-4.95 -3.14,-9.49 -6.23,-13.62 -3.18,-4.05 -7.04,-7.22 -11.6,-9.53 -4.56,-2.31 -9.41,-3.47 -14.53,-3.47 -5.95,0 -11.44,1.49 -16.49,4.46 -5.13,3.05 -9.18,7.16 -12.15,12.32z"/>
   <path class="fil1" d="M442.47 90.27c5.09,3.01 10.6,4.52 16.55,4.52 6.02,0 11.56,-1.53 16.6,-4.58 5.05,-2.97 9.06,-7.04 12.03,-12.2 2.97,-5.15 4.46,-10.74 4.46,-16.77 0,-6.02 -1.46,-11.64 -4.4,-16.84 -3.01,-5.11 -7.08,-9.18 -12.21,-12.19 -5.13,-3.01 -10.62,-4.52 -16.48,-4.52 -5.95,0 -11.44,1.49 -16.49,4.46 -5.13,3.05 -9.18,7.16 -12.15,12.32 -2.97,5.15 -4.46,10.75 -4.46,16.77 0,6.11 1.51,11.68 4.52,16.71 2.93,5.2 6.94,9.31 12.03,12.32zm25.77 -12.94c-2.81,1.65 -5.89,2.48 -9.22,2.48 -3.26,0 -6.31,-0.83 -9.16,-2.48 -2.85,-1.65 -5.09,-3.9 -6.72,-6.74 -1.63,-2.85 -2.44,-5.97 -2.44,-9.35 0,-3.38 0.81,-6.52 2.44,-9.41 1.63,-2.89 3.85,-5.14 6.65,-6.75 2.81,-1.61 5.89,-2.41 9.23,-2.41 3.33,0 6.43,0.83 9.28,2.48 2.85,1.65 5.06,3.9 6.65,6.74 1.59,2.85 2.38,5.97 2.38,9.35 0,3.3 -0.81,6.4 -2.44,9.29 -1.63,2.88 -3.85,5.15 -6.65,6.8z"/>
   <path class="fil1" d="M511.2 24.6l-17.09 0 24.18 70.19 15.38 0 24.92 -70.19 -16.86 0 -14.04 42.71c-0.08,0.33 -0.28,1.07 -0.61,2.22l-0.73 2.11 -1.35 -4.33 -13.8 -42.71z"/>
   <path class="fil1" d="M579.8 24.6l-17.1 0 24.18 70.19 15.38 0 24.92 -70.19 -16.86 0 -14.04 42.71c-0.08,0.33 -0.28,1.07 -0.61,2.22l-0.73 2.11 -1.35 -4.33 -13.79 -42.71z"/>
   <path class="fil0 str0" d="M2.76 92.14l26.74 0c21.07,0 33.02,-15.31 33.02,-36.45 0,-21.04 -11.85,-36.46 -33.02,-36.46l-26.79 0 0 7.61 26.18 0c17.32,0 25.73,11.98 25.73,28.85 0,16.77 -8.51,28.85 -25.73,28.85l-18.43 0 0.24 -47.98 -7.94 5.84 0 49.74z"/>
   <path class="fil2" d="M317.31 27.37c18.57,0 33.62,15.1 33.62,33.71 0,1.79 -0.15,3.55 -0.41,5.27l-12.6 0.51 -37.94 0 0 0 36.17 -11.4c-2.57,-7.88 -10.19,-13.59 -19.18,-13.59 -11.11,0 -20.12,8.7 -20.12,19.43 0,10.72 9.01,19.42 20.12,19.42 5.99,0 11.37,-2.53 15.05,-6.55l13.35 5.47c-6.01,9.13 -16.34,15.15 -28.06,15.15 -18.56,0 -33.61,-15.09 -33.61,-33.71 0,-18.61 15.05,-33.71 33.61,-33.71z"/>
   <path class="fil2" d="M659.71 27.37c18.56,0 33.61,15.1 33.61,33.71 0,1.79 -0.14,3.55 -0.41,5.27l-12.59 0.51 -37.94 0 0 0 36.16 -11.4c-2.56,-7.88 -10.18,-13.58 -19.18,-13.58 -11.11,0 -20.11,8.69 -20.11,19.42 0,10.73 9,19.42 20.11,19.42 5.99,0 11.37,-2.53 15.06,-6.55l13.34 5.47c-6.01,9.13 -16.33,15.15 -28.05,15.15 -18.57,0 -33.62,-15.09 -33.62,-33.71 0,-18.61 15.05,-33.71 33.62,-33.71z"/>
  </g>
 </g>
</svg>
